<?xml version="1.0" encoding="utf-8" standalone="yes"?>
<!DOCTYPE svg PUBLIC "-//W3C//DTD SVG 1.1//EN" "http://www.w3.org/Graphics/SVG/1.1/DTD/svg11.dtd">
<svg style="fill:none;stroke:none;fill-rule:evenodd;clip-rule:evenodd;stroke-linecap:round;stroke-linejoin:round;stroke-miterlimit:1.5;" version="1.1" xmlns="http://www.w3.org/2000/svg" xmlns:xlink="http://www.w3.org/1999/xlink" width="900" height="600" viewBox="0 0 900 600"><style class="text-font-style fontImports" data-font-family="Roboto">@import url(https://fonts.googleapis.com/css2?family=Roboto:wght@400;700&amp;amp;display=block);</style><g id="items" style="isolation: isolate"><g id="blend" style="mix-blend-mode: normal"><g id="g-root-cp_start_g-start_8jzy173ao06-fill" data-item-order="-429398" transform="translate(62, 122)"><g id="cp_start_g-start_8jzy173ao06-fill-merged" stroke="none" fill="url(#gradient-fe8884-413551779)" fill-opacity="1"><g><path d="M10 383.715C10 389.625 12.529 395.294 17.029 399.473C21.53 403.652 27.635 406 34 406 H166C172.365 406 178.47 403.652 182.971 399.473C187.471 395.294 190 389.625 190 383.715 V34C190 27.635 187.471 21.531 182.971 17.03C178.47 12.529 172.365 10 166 10 H34C27.635 10 21.53 12.529 17.029 17.03C12.529 21.531 10 27.635 10 34 V383.715"></path></g></g></g><g id="g-root-cp_1_g-1_1lpw3lq173apdz-fill" data-item-order="-429374" transform="translate(254, 122)"><g id="cp_1_g-1_1lpw3lq173apdz-fill-merged" stroke="none" fill="url(#gradient-fcaa5f-123734360)" fill-opacity="1"><g><path d="M10 383.715C10 389.625 12.529 395.294 17.029 399.473C21.53 403.652 27.635 406 34 406 H166C172.365 406 178.47 403.652 182.971 399.473C187.471 395.294 190 389.625 190 383.715 V34C190 27.635 187.471 21.531 182.971 17.03C178.47 12.529 172.365 10 166 10 H34C27.635 10 21.53 12.529 17.029 17.03C12.529 21.531 10 27.635 10 34 V383.715"></path></g></g></g><g id="g-root-cp_2_g-2_18f22bi173ant4-fill" data-item-order="-429344" transform="translate(446, 122)"><g id="cp_2_g-2_18f22bi173ant4-fill-merged" stroke="none" fill="url(#gradient-ffeb37-386795387)" fill-opacity="1"><g><path d="M10 383.715C10 389.625 12.529 395.294 17.029 399.473C21.53 403.652 27.635 406 34 406 H166C172.365 406 178.47 403.652 182.971 399.473C187.471 395.294 190 389.625 190 383.715 V34C190 27.635 187.471 21.531 182.971 17.03C178.47 12.529 172.365 10 166 10 H34C27.635 10 21.53 12.529 17.029 17.03C12.529 21.531 10 27.635 10 34 V383.715"></path></g></g></g><g id="g-root-cp_end_g-end_v3ljy6173ape1-fill" data-item-order="-429316" transform="translate(638, 122)"><defs><linearGradient id="gradient-fe8884-413551779" x2="0" y2="1"><stop offset="0" stop-color="#ffa6a3"></stop><stop offset="1" stop-color="#fd6a65"></stop></linearGradient><linearGradient id="gradient-fcaa5f-123734360" x2="0" y2="1"><stop offset="0" stop-color="#ffbf84"></stop><stop offset="1" stop-color="#f99539"></stop></linearGradient><linearGradient id="gradient-ffeb37-386795387" x2="0" y2="1"><stop offset="0" stop-color="#ffef63"></stop><stop offset="1" stop-color="#ffe60a"></stop></linearGradient><linearGradient id="gradient-64edab-240055791" x2="0" y2="1"><stop offset="0" stop-color="#83fac1"></stop><stop offset="1" stop-color="#44e095"></stop></linearGradient></defs><g id="cp_end_g-end_v3ljy6173ape1-fill-merged" stroke="none" fill="url(#gradient-64edab-240055791)" fill-opacity="1"><g><path d="M10 383.715C10 389.625 12.529 395.294 17.029 399.473C21.53 403.652 27.635 406 34 406 H166C172.365 406 178.47 403.652 182.971 399.473C187.471 395.294 190 389.625 190 383.715 V34C190 27.635 187.471 21.531 182.971 17.03C178.47 12.529 172.365 10 166 10 H34C27.635 10 21.53 12.529 17.029 17.03C12.529 21.531 10 27.635 10 34 V383.715"></path></g></g></g><g id="g-root-cp_0_g-0_dcy0ji173aole-fill" data-item-order="-429291" transform="translate(26, 326.00048828125)"></g><g id="g-root-cp_0_g-0_1_4hb0am173ape3-fill" data-item-order="-429283" transform="translate(269, 407)"></g><g id="g-root-tx_moderniz_1q7l0zi173anm4-fill" data-item-order="0" transform="translate(266, 38.000244140625)"><g id="tx_moderniz_1q7l0zi173anm4-fill-merged" stroke="none" fill="#484848" fill-opacity="1"><g><text style="font: bold 25px Roboto, sans-serif; white-space: pre;" transform="translate(184, 28)" font-weight="bold" font-size="25px" font-family="Roboto, sans-serif"><tspan x="-167.34" y="15" dominant-baseline="ideographic">Modernizing Alert Processing</tspan></text></g></g></g><g id="g-root-tx_codeanal_1q9gg8u173ammf-fill" data-item-order="0" transform="translate(278, 170.000244140625)"><g id="tx_codeanal_1q9gg8u173ammf-fill-merged" stroke="none" fill="#484848" fill-opacity="1"><g><text style="font: bold 20px Roboto, sans-serif; white-space: pre;" transform="translate(76, 22)" font-weight="bold" font-size="20px" font-family="Roboto, sans-serif"><tspan x="-63.82" y="12" dominant-baseline="ideographic">Code Analysis</tspan></text></g></g></g><g id="g-root-tx_legacyal_zlahby173anm5-fill" data-item-order="0" transform="translate(86, 170.000244140625)"><g id="tx_legacyal_zlahby173anm5-fill-merged" stroke="none" fill="#484848" fill-opacity="1"><g><text style="font: bold 20px Roboto, sans-serif; white-space: pre;" transform="translate(76, 40)" font-weight="bold" font-size="20px" font-family="Roboto, sans-serif"><tspan x="-59.15" y="-0" dominant-baseline="ideographic">Legacy Alert </tspan><tspan x="-52.94" y="24" dominant-baseline="ideographic">Processing</tspan></text></g></g></g><g id="g-root-tx_recommen_mbpe7y173ao7d-fill" data-item-order="0" transform="translate(458, 170.000244140625)"><g id="tx_recommen_mbpe7y173ao7d-fill-merged" stroke="none" fill="#484848" fill-opacity="1"><g><text style="font: bold 20px Roboto, sans-serif; white-space: pre;" transform="translate(94, 40)" font-weight="bold" font-size="20px" font-family="Roboto, sans-serif"><tspan x="-80.63" y="-0" dominant-baseline="ideographic">Recommendation </tspan><tspan x="-50.73" y="24" dominant-baseline="ideographic">Generation</tspan></text></g></g></g><g id="g-root-tx_modernal_1czvd4u173an7n-fill" data-item-order="0" transform="translate(662, 170.000244140625)"><g id="tx_modernal_1czvd4u173an7n-fill-merged" stroke="none" fill="#484848" fill-opacity="1"><g><text style="font: bold 20px Roboto, sans-serif; white-space: pre;" transform="translate(76, 40)" font-weight="bold" font-size="20px" font-family="Roboto, sans-serif"><tspan x="-61.73" y="-0" dominant-baseline="ideographic">Modern Alert </tspan><tspan x="-52.95" y="24" dominant-baseline="ideographic">Processing</tspan></text></g></g></g><g id="g-root-tx_crawlera_1cxzxvi173ao7c-fill" data-item-order="0" transform="translate(278, 206.000244140625)"><g id="tx_crawlera_1cxzxvi173ao7c-fill-merged" stroke="none" fill="#484848" fill-opacity="1"><g><text style="font: bold 15px Roboto, sans-serif; white-space: pre;" transform="translate(76, 28)" font-weight="bold" font-size="15px" font-family="Roboto, sans-serif"><tspan x="-59.22" y="0" dominant-baseline="ideographic">Crawler analyzes </tspan><tspan x="-58.3" y="18" dominant-baseline="ideographic">legacy codebase</tspan></text></g></g></g><g id="g-root-tx_complexo_humxxa173amti-fill" data-item-order="0" transform="translate(80, 242)"><g id="tx_complexo_humxxa173amti-fill-merged" stroke="none" fill="#484848" fill-opacity="1"><g><text style="font: bold 15px Roboto, sans-serif; white-space: pre;" transform="translate(82, 28)" font-weight="bold" font-size="15px" font-family="Roboto, sans-serif"><tspan x="-65.3" y="0" dominant-baseline="ideographic">Complex, outdated </tspan><tspan x="-34.42" y="18" dominant-baseline="ideographic">codebase</tspan></text></g></g></g><g id="g-root-tx_aigenera_1uqiwji173ao0a-fill" data-item-order="0" transform="translate(476, 242)"><g id="tx_aigenera_1uqiwji173ao0a-fill-merged" stroke="none" fill="#484848" fill-opacity="1"><g><text style="font: bold 15px Roboto, sans-serif; white-space: pre;" transform="translate(76, 40)" font-weight="bold" font-size="15px" font-family="Roboto, sans-serif"><tspan x="-42.77" y="-9" dominant-baseline="ideographic">AI generates </tspan><tspan x="-48.73" y="9" dominant-baseline="ideographic">modernization </tspan><tspan x="-61.17" y="27" dominant-baseline="ideographic">recommendations</tspan></text></g></g></g><g id="g-root-tx_streamli_mdktha173an7o-fill" data-item-order="0" transform="translate(650, 242)"><g id="tx_streamli_mdktha173an7o-fill-merged" stroke="none" fill="#484848" fill-opacity="1"><g><text style="font: bold 15px Roboto, sans-serif; white-space: pre;" transform="translate(88, 28)" font-weight="bold" font-size="15px" font-family="Roboto, sans-serif"><tspan x="-74.13" y="0" dominant-baseline="ideographic">Streamlined, efficient </tspan><tspan x="-34.42" y="18" dominant-baseline="ideographic">codebase</tspan></text></g></g></g><g id="g-root-cp_start_g-start_8jzy173ao06-stroke" data-item-order="-429398" transform="translate(62, 122)"><g id="cp_start_g-start_8jzy173ao06-stroke" fill="none" stroke-linecap="round" stroke-linejoin="round" stroke-miterlimit="4" stroke="#484848" stroke-width="2" stroke-opacity="1"><g><path d="M 190 46.000244L 190 34.000244C 190 27.635044 187.4714 21.530544 182.9706 17.029644C 178.4697 12.528844 172.3652 10.000244 166 10.000244L 34 10.000244C 27.6348 10.000244 21.5303 12.528844 17.0294 17.029644C 12.5286 21.530544 10 27.635044 10 34.000244L 10 46.000244M 190 250.000244L 190 46.000244M 10 46.000244L 10 250.000244M 190 250.000244L 190 383.714544C 190 389.625044 187.4714 395.293544 182.9706 399.472944C 178.4697 403.652244 172.3652 406.000244 166 406.000244L 34 406.000244C 27.6348 406.000244 21.5303 403.652244 17.0294 399.472944C 12.5286 395.293544 10 389.625044 10 383.714544L 10 250.000244"></path></g></g></g><g id="g-root-cp_1_g-1_1lpw3lq173apdz-stroke" data-item-order="-429374" transform="translate(254, 122)"><g id="cp_1_g-1_1lpw3lq173apdz-stroke" fill="none" stroke-linecap="round" stroke-linejoin="round" stroke-miterlimit="4" stroke="#484848" stroke-width="2" stroke-opacity="1"><g><path d="M 190 250.000244L 190 46.000244M 10 46.000244L 10 250.000244M 190 250.000244L 190 383.714544C 190 389.625044 187.4714 395.293544 182.9706 399.472944C 178.4697 403.652244 172.3652 406.000244 166 406.000244L 34 406.000244C 27.6348 406.000244 21.5303 403.652244 17.0294 399.472944C 12.5286 395.293544 10 389.625044 10 383.714544L 10 250.000244M 190 46.000244L 190 34.000244C 190 27.635044 187.4714 21.530544 182.9706 17.029644C 178.4697 12.528844 172.3652 10.000244 166 10.000244L 34 10.000244C 27.6348 10.000244 21.5303 12.528844 17.0294 17.029644C 12.5286 21.530544 10 27.635044 10 34.000244L 10 46.000244"></path></g></g></g><g id="g-root-cp_2_g-2_18f22bi173ant4-stroke" data-item-order="-429344" transform="translate(446, 122)"><g id="cp_2_g-2_18f22bi173ant4-stroke" fill="none" stroke-linecap="round" stroke-linejoin="round" stroke-miterlimit="4" stroke="#484848" stroke-width="2" stroke-opacity="1"><g><path d="M 190 46.000244L 190 34.000244C 190 27.635044 187.4714 21.530544 182.9706 17.029644C 178.4697 12.528844 172.3652 10.000244 166 10.000244L 34 10.000244C 27.6348 10.000244 21.5303 12.528844 17.0294 17.029644C 12.5286 21.530544 10 27.635044 10 34.000244L 10 46.000244M 190 250.000244L 190 46.000244M 10 46.000244L 10 250.000244M 190 250.000244L 190 383.714544C 190 389.625044 187.4714 395.293544 182.9706 399.472944C 178.4697 403.652244 172.3652 406.000244 166 406.000244L 34 406.000244C 27.6348 406.000244 21.5303 403.652244 17.0294 399.472944C 12.5286 395.293544 10 389.625044 10 383.714544L 10 250.000244"></path></g></g></g><g id="g-root-cp_end_g-end_v3ljy6173ape1-stroke" data-item-order="-429316" transform="translate(638, 122)"><g id="cp_end_g-end_v3ljy6173ape1-stroke" fill="none" stroke-linecap="round" stroke-linejoin="round" stroke-miterlimit="4" stroke="#484848" stroke-width="2" stroke-opacity="1"><g><path d="M 190 46.000244L 190 34.000244C 190 27.635044 187.4714 21.530544 182.9706 17.029644C 178.4697 12.528844 172.3652 10.000244 166 10.000244L 34 10.000244C 27.6348 10.000244 21.5303 12.528844 17.0294 17.029644C 12.5286 21.530544 10 27.635044 10 34.000244L 10 46.000244M 190 250.000244L 190 46.000244M 10 46.000244L 10 250.000244M 190 250.000244L 190 383.714544C 190 389.625044 187.4714 395.293544 182.9706 399.472944C 178.4697 403.652244 172.3652 406.000244 166 406.000244L 34 406.000244C 27.6348 406.000244 21.5303 403.652244 17.0294 399.472944C 12.5286 395.293544 10 389.625044 10 383.714544L 10 250.000244"></path></g></g></g><g id="g-root-cp_0_g-0_dcy0ji173aole-stroke" data-item-order="-429291" transform="translate(26, 326.00048828125)"><g id="cp_0_g-0_dcy0ji173aole-stroke" fill="none" stroke-linecap="round" stroke-linejoin="round" stroke-miterlimit="4" stroke="#484848" stroke-width="2" stroke-opacity="1"><g><path d="M 819 138.999997L 826 146.999997L 833 138.999997M 819 138.999997L 826 146.999997L 833 138.999997M 797 116.999997L 790 108.999997L 783 116.999997M 797 116.999997L 790 108.999997L 783 116.999997M 797 128.999997L 790 120.999997L 783 128.999997M 797 128.999997L 790 120.999997L 783 128.999997M 797 140.999997L 790 132.999997L 783 140.999997M 797 140.999997L 790 132.999997L 783 140.999997M 770 94.230597L 754 81.310597L 738 94.230597M 770 94.230597L 754 81.310597L 738 94.230597M 770 113.619397L 754 100.689497L 738 113.619397M 770 113.619397L 754 100.689497L 738 113.619397M 770 133.000097L 754 120.080097L 738 133.000097M 770 133.000097L 754 120.080097L 738 133.000097M 170 94.230597L 154 81.310597L 138 94.230597M 170 94.230597L 154 81.310597L 138 94.230597M 170 113.619397L 154 100.689497L 138 113.619397M 170 113.619397L 154 100.689497L 138 113.619397M 170 133.000097L 154 120.080097L 138 133.000097M 170 133.000097L 154 120.080097L 138 133.000097M 110 94.230597L 94 81.310597L 78 94.230597M 110 94.230597L 94 81.310597L 78 94.230597M 110 113.619397L 94 100.689497L 78 113.619397M 110 113.619397L 94 100.689497L 78 113.619397M 110 133.000097L 94 120.080097L 78 133.000097M 110 133.000097L 94 120.080097L 78 133.000097M 67 119.850997L 57.86 112.460897L 48.71 119.850997M 67 119.850997L 57.86 112.460897L 48.71 119.850997M 67 130.919097L 57.86 123.539097L 48.71 130.919097M 67 130.919097L 57.86 123.539097L 48.71 130.919097M 67 141.999097L 57.86 134.619097L 48.71 141.999097M 67 141.999097L 57.86 134.619097L 48.71 141.999097M 723 138.999997L 730 146.999997L 737 138.999997M 723 138.999997L 730 146.999997L 737 138.999997M 327 138.999997L 334 146.999997L 341 138.999997M 327 138.999997L 334 146.999997L 341 138.999997M 303 138.999997L 310 146.999997L 317 138.999997M 303 138.999997L 310 146.999997L 317 138.999997M 279 138.999997L 286 146.999997L 293 138.999997M 279 138.999997L 286 146.999997L 293 138.999997M 111 138.999997L 118 146.999997L 125 138.999997M 111 138.999997L 118 146.999997L 125 138.999997M 15 138.999997L 22 146.999997L 29 138.999997M 15 138.999997L 22 146.999997L 29 138.999997M 297.0002 134.999997L 276.7603 123.139997C 270.268 119.338997 264.4411 114.501797 259.5102 108.819997L 238.7602 84.889997C 237.5642 83.507397 235.9142 82.596697 234.1069 82.321697C 232.2995 82.046797 230.4533 82.425597 228.9002 83.389997L 220.4202 88.650097C 218.7571 89.680297 216.8931 90.343497 214.953 90.595297C 213.0128 90.847097 211.0413 90.681597 209.1702 90.109997C 207.1875 89.502797 205.0929 89.352897 203.0439 89.671597C 200.9949 89.990297 199.0449 90.769297 197.3402 91.949997L 186.0902 99.720097C 183.9942 101.168697 181.6232 102.171697 179.1239 102.667097C 176.6247 103.162497 174.0503 103.139697 171.5602 102.600097L 169.4902 102.139997M 231.8198 102.819797L 239.3398 98.439797C 240.2838 97.887997 241.338 97.551697 242.4272 97.454897C 243.5163 97.358097 244.6133 97.503197 245.6398 97.879797C 248.4919 98.880797 251.1859 100.284997 253.6398 102.049797M 244.4199 90.999997L 247.4199 91.469997M 589 90.489997L 592 89.999997M 244 81.999997L 244 90.919997L 244.4199 90.999997M 250.2298 144.240897L 239.2298 128.530997C 238.6986 127.775197 237.9026 127.246897 236.9998 127.050897C 234.5282 126.529797 232.1059 125.797097 229.7598 124.860897C 229.0318 124.555697 228.2247 124.493897 227.4587 124.684997C 226.6928 124.875997 226.0092 125.309497 225.5098 125.920897L 218.8198 134.160997M 223.4101 128.489197L 215.9001 124.369197C 214.9274 123.831297 213.812 123.607897 212.7072 123.729697C 211.6023 123.851397 210.5623 124.312397 209.7301 125.049197L 200.6401 133.049197M 616.94 154.000797L 606.94 135.330897C 605.1119 131.901397 602.2006 129.172997 598.66 127.570797L 591.85 124.480797C 588.45 122.948197 585.592 120.424697 583.65 117.240797L 577.65 107.450897C 577.3858 107.016597 577.0245 106.649497 576.5945 106.378297C 576.1645 106.107097 575.6775 105.939297 575.1718 105.887897C 574.666 105.836597 574.1553 105.903097 573.6796 106.082297C 573.2039 106.261497 572.7761 106.548497 572.43 106.920797L 566.65 113.140897C 563.5021 116.531197 560.5981 120.140197 557.96 123.940797C 555.0301 128.169897 552.4387 132.623797 550.21 137.260897L 548 142.000797M 593.4502 138.210897C 593.4502 138.210897 599.3302 132.450897 603.9502 131.210897M 644.3198 116.630297L 656.5998 106.280297C 658.024 105.077497 659.776 104.328797 661.6296 104.130997C 663.4833 103.933097 665.3538 104.295097 666.9998 105.170297L 674.5698 109.170297C 677.8852 110.940597 681.688 111.579597 685.3998 110.990297L 687.7698 110.620297C 692.9374 109.820897 697.9438 108.200397 702.5998 105.820297L 718.6898 97.560297C 719.409 97.189097 720.2275 97.055897 721.0273 97.179897C 721.8271 97.303897 722.5668 97.678697 723.1398 98.250297L 727.8098 102.920297M 578.48 108.699297L 592 90.219297L 605 72.399297C 606.1307 70.853997 607.6543 69.639297 609.4127 68.881497C 611.1711 68.123597 613.1002 67.850097 615 68.089297L 628 69.719297C 629.7403 69.936797 631.5072 69.770097 633.1761 69.231097C 634.8451 68.691997 636.3756 67.793697 637.66 66.599297L 643.66 61.029297C 647.4723 57.476897 651.7276 54.431697 656.32 51.969297L 656.92 51.649297C 658.5719 50.765997 660.4144 50.298897 662.2876 50.288497C 664.1608 50.277997 666.0083 50.724497 667.67 51.589297L 671.32 53.489297C 673.173 54.450897 675.2524 54.890997 677.3361 54.762397C 679.4197 54.633797 681.4294 53.941397 683.15 52.759297L 695.52 44.259297C 697.6295 42.807997 700.1295 42.030497 702.69 42.029297L 717.9 42.029297C 720.8149 42.032297 723.6398 43.038697 725.9 44.879297L 742 57.999297M 706.8599 67.450897L 709.7099 60.800797C 711.0094 57.752297 713.0515 55.077697 715.6499 53.020897L 725.9099 44.880897M 680.3801 94.310697L 672.0001 87.090697C 670.499 85.800797 668.6903 84.920497 666.7491 84.534997C 664.8079 84.149597 662.8 84.272097 660.92 84.890697L 652.6401 87.600697C 650.4701 88.311197 648.1377 88.359697 645.9401 87.739897C 643.7424 87.120197 641.7791 85.860297 640.3 84.120697L 628.0601 69.720697M 10 153.999997L 838 153.999997M 826 153.999997L 826 135.999997M 790 101.999997L 790 153.999997M 754 69.999997L 754 153.999997M 154 69.999997L 154 153.999997M 94 69.999997L 94 153.999997M 57.8599 105.999997L 57.8599 153.999997M 730 153.999997L 730 135.999997M 334 153.999997L 334 135.999997M 310 153.999997L 310 135.999997M 286 153.999997L 286 135.999997M 118 153.999997L 118 135.999997M 22 153.999997L 22 135.999997M 592 81.999997L 592 90.229997M 676.05 27.97L 658 27.97L 658 16L 676.05 16L 673.05 21.99L 676.05 27.97ZM 658 10L 658 51.15M 294.999987 61C 297.209187 61 298.999987 59.2091 298.999987 57C 298.999987 54.7909 297.209187 53 294.999987 53C 292.790887 53 290.999987 54.7909 290.999987 57C 290.999987 59.2091 292.790887 61 294.999987 61ZM 292.939987 64.3594L 292.939987 71.2394C 292.937987 71.4036 292.983487 71.5649 293.071187 71.7038C 293.158887 71.8427 293.284887 71.9532 293.434087 72.0219C 293.583287 72.0907 293.749087 72.1148 293.911687 72.0912C 294.074187 72.0677 294.226487 71.9976 294.349987 71.8894L 299.259987 67.7094M 289.520087 75.2109L 289.520087 77.8209C 289.517387 78.1643 289.609287 78.5017 289.785687 78.7963C 289.962087 79.0908 290.216187 79.3312 290.520087 79.4909C 293.010087 80.7709 299.310087 85.1209 300.520087 96.7909M 288.909887 63.5593C 286.739587 67.0653 285.487687 71.0617 285.269887 75.1793C 285.259187 75.4653 285.181487 75.7449 285.043187 75.9954C 284.904887 76.246 284.709687 76.4606 284.473387 76.622C 284.237087 76.7834 283.966187 76.8872 283.682487 76.9249C 283.398787 76.9627 283.110187 76.9334 282.839887 76.8394C 281.834387 76.5017 280.898987 75.9831 280.079887 75.3093C 279.394687 74.7146 278.916787 73.9171 278.715387 73.0325C 278.513987 72.1478 278.599587 71.222 278.959887 70.3893C 280.119887 67.6693 282.359887 63.1993 285.469887 60.6193C 285.707887 60.4235 286.006587 60.3164 286.314887 60.3164C 286.623087 60.3164 286.921787 60.4235 287.159887 60.6193L 288.639887 61.8693C 288.880087 62.0718 289.039387 62.3539 289.088987 62.6641C 289.138587 62.9743 289.074987 63.2921 288.909887 63.5593ZM 289.520187 83.9297L 282.240187 94.7097"></path></g></g></g><g id="g-root-cp_0_g-0_1_4hb0am173ape3-stroke" data-item-order="-429283" transform="translate(269, 407)"><g id="cp_0_g-0_1_4hb0am173ape3-stroke" fill="none" stroke-linecap="round" stroke-linejoin="round" stroke-miterlimit="4" stroke="#484848" stroke-width="2" stroke-dasharray="5.0, 7.0" stroke-opacity="1"><g><path d="M 10 11.4442C 47.2802 17.0252 190.8867 35.1712 343 10"></path></g></g></g><g id="g-root-tx_moderniz_1q7l0zi173anm4-stroke" data-item-order="0" transform="translate(266, 38.000244140625)"></g><g id="g-root-tx_codeanal_1q9gg8u173ammf-stroke" data-item-order="0" transform="translate(278, 170.000244140625)"></g><g id="g-root-tx_legacyal_zlahby173anm5-stroke" data-item-order="0" transform="translate(86, 170.000244140625)"></g><g id="g-root-tx_recommen_mbpe7y173ao7d-stroke" data-item-order="0" transform="translate(458, 170.000244140625)"></g><g id="g-root-tx_modernal_1czvd4u173an7n-stroke" data-item-order="0" transform="translate(662, 170.000244140625)"></g><g id="g-root-tx_crawlera_1cxzxvi173ao7c-stroke" data-item-order="0" transform="translate(278, 206.000244140625)"></g><g id="g-root-tx_complexo_humxxa173amti-stroke" data-item-order="0" transform="translate(80, 242)"></g><g id="g-root-tx_aigenera_1uqiwji173ao0a-stroke" data-item-order="0" transform="translate(476, 242)"></g><g id="g-root-tx_streamli_mdktha173an7o-stroke" data-item-order="0" transform="translate(650, 242)"></g></g></g><path id="wzqb2gu186wg0e" d="M65.283 12.757a.35.35 0 0 0 .584.157l5.203-5.141-6.183 3.523.396 1.461zm-2.216-11.7a.35.35 0 0 0-.522.305v3.111l3.276-1.868-2.754-1.548zm3.728 2.105l-4.25 2.421v2.445l6.391-3.644-2.141-1.222zm4.708 3.303a.35.35 0 0 0 0-.609l-1.592-.9-7.365 4.199v1.782a.35.35 0 0 0 .523.305l8.435-4.777z M44.542 2.513c0-.433.355-.783.792-.783s.792.35.792.783-.355.783-.792.783-.792-.35-.792-.783zm59.171 0c0-.433.355-.783.792-.783s.792.35.792.783-.355.783-.792.783-.792-.35-.792-.783zm-85.951 7.636h-1.27v-.487c-.276.201-.864.609-1.881.609-1.202 0-2.274-.794-2.137-2.078.118-1.106 1.153-1.584 1.848-1.727l2.17-.345c0-.539-.29-.956-1.064-1.006s-1.21.305-1.571 1.017l-1.124-.605c1.218-2.631 5.029-1.764 5.029.414v4.207zm-1.27-2.86c.006.396-.062 1.112-.819 1.59-.587.37-1.841.299-1.903-.395-.049-.555.461-.791.906-.898l1.816-.297zm72.662 2.86h-1.27v-.487c-.276.201-.864.609-1.881.609-1.202 0-2.274-.794-2.137-2.078.118-1.106 1.153-1.584 1.848-1.727l2.17-.345c0-.539-.29-.956-1.064-1.006s-1.21.305-1.571 1.017l-1.124-.605c1.218-2.631 5.029-1.764 5.029.414v4.207zm-1.27-2.86c.006.396-.062 1.112-.82 1.59-.587.37-1.841.299-1.903-.395-.049-.555.461-.791.906-.898l1.816-.297zM99.096 10.149H97.85v-8.45h1.246v4.895l2.68-2.559h1.738l-2.633 2.535 2.715 3.578h-1.556l-2.077-2.707-.867.844v1.863zm6.053-6.114h-1.255v6.113h1.255V4.035zm-59.2 0h-1.255v6.113h1.255V4.035zm5.584 6.113V1.697h1.255v2.695c.361-.346 1-.485 1.47-.485 1.452 0 2.477 1.082 2.457 2.448v3.792h-1.27v-3.68c0-.408-.214-1.339-1.315-1.339-.968 0-1.342.756-1.342 1.339v3.681h-1.255zm-4.76-4.894V4.039h.621a.45.45 0 0 0 .45-.45v-.855h1.251v1.305h1.309v1.215h-1.309v3.109c0 .293.105.664.648.664.365 0 .531-.035.736-.07v1.137s-.361.113-.857.113c-1.398 0-1.777-1.051-1.777-1.788V5.254h-1.071zM36.528 4.039h-1.394l2.191 6.106h1.125l1.234-3.918 1.238 3.918h1.129l2.188-6.106h-1.383l-1.359 3.93-1.256-3.93h-1.124l-1.242 3.957-1.348-3.957zM26.212 7.141c-.02 1.566 1.187 3.129 3.223 3.129 1.566 0 2.383-.918 2.734-1.719L31.172 8c-.315.399-.801 1.094-1.738 1.094-1.145 0-1.825-.781-1.891-1.52h4.625c.074-.284.148-.995-.03-1.559-.336-1.064-1.221-2.102-2.839-2.102s-3.088 1.152-3.088 3.227zm1.363-.75h3.348c-.055-.43-.566-1.301-1.623-1.301a1.79 1.79 0 0 0-1.725 1.301zm-8.758.75c.038 1.758 1.277 3.133 3.145 3.133 1.074 0 1.723-.477 1.961-.672v.547h1.242V1.703h-1.258v2.888c-.414-.36-1.062-.68-1.93-.68-1.91 0-3.198 1.473-3.16 3.23zm1.309-.08c0 1.119.723 1.978 1.836 1.978a1.88 1.88 0 0 0 1.94-1.904c0-1.371-1.011-1.99-1.972-1.99s-1.805.798-1.805 1.916zm76.683-.028C96.771 5.275 95.532 3.9 93.664 3.9c-1.074 0-1.723.477-1.961.672v-.547h-1.242v8.22h1.258V9.583c.414.36 1.063.68 1.93.68 1.91 0 3.198-1.473 3.16-3.23zm-1.309.08c0-1.119-.723-1.978-1.836-1.978a1.88 1.88 0 0 0-1.94 1.904c0 1.371 1.011 1.99 1.972 1.99S95.5 8.231 95.5 7.113zM106.441 10.173V4.036h1.254v.382c.361-.346 1-.485 1.47-.485 1.452 0 2.477 1.082 2.457 2.448v3.792h-1.27V6.492c0-.408-.214-1.339-1.315-1.339-.969 0-1.342.756-1.342 1.339v3.681h-1.254zm-30.383-.021V1.824h1.084l4.215 5.777V1.824h1.32v8.328h-1.094l-4.207-5.796v5.796h-1.319zM5.24 10.149H4V2.377h1.014l2.664 3.597 2.654-3.592h1.03v7.766h-1.256V4.762L7.678 8.068 5.24 4.742v5.407z" transform="translate(764, 566)" fill="#80808088" stroke="none"></path></svg>