<?xml version="1.0" encoding="utf-8" standalone="yes"?>
<!DOCTYPE svg PUBLIC "-//W3C//DTD SVG 1.1//EN" "http://www.w3.org/Graphics/SVG/1.1/DTD/svg11.dtd">
<svg style="fill:none;stroke:none;fill-rule:evenodd;clip-rule:evenodd;stroke-linecap:round;stroke-linejoin:round;stroke-miterlimit:1.5;" version="1.1" xmlns="http://www.w3.org/2000/svg" xmlns:xlink="http://www.w3.org/1999/xlink" width="924" height="684" viewBox="0 0 924 684"><style class="text-font-style fontImports" data-font-family="Roboto">@import url(https://fonts.googleapis.com/css2?family=Roboto:wght@400;700&amp;amp;display=block);</style><g id="items" style="isolation: isolate"><g id="blend" style="mix-blend-mode: normal"><g id="g-root-cp_0_g-0_zlxqum15z59tt-fill" data-item-order="-515078" transform="translate(362.1970520019531, 278)"><g id="cp_0_g-0_zlxqum15z59tt-fill-merged" stroke="none" fill="url(#gradient-cbcbcb-248399021)" fill-opacity="1"><g><path d="M177.421 99.618C174.532 143.358 138.163 177.949 93.704 178C49.307 177.949 12.978 143.455 10 99.803L15.803 94L10 88.197C12.978 44.544 49.307 10.051 93.704 10C138.163 10.051 174.532 44.642 177.421 88.382L171.803 94L177.421 99.618"></path></g></g></g><g id="g-root-cp_1_g-1_mb3pke15z588y-fill" data-item-order="-515074" transform="translate(446, 122)"><g id="cp_1_g-1_mb3pke15z588y-fill-merged" stroke="none" fill="url(#gradient-64edab-240055791)" fill-opacity="1"><g><path d="M101.844 471.731C72.726 483.792 41.517 490 10 490 V406.658C30.573 406.658 50.944 402.606 69.95 394.733C88.957 386.86 106.227 375.321 120.774 360.774C135.321 346.227 146.86 328.957 154.733 309.95C159.524 298.385 162.9 286.314 164.809 274 H124 V286L88 250L124 214 V226 H164.809C162.9 213.686 159.524 201.615 154.733 190.05C146.86 171.043 135.321 153.773 120.774 139.226C106.227 124.679 88.957 113.14 69.95 105.267C50.944 97.394 30.573 93.342 10 93.342 V10C41.517 10 72.726 16.208 101.844 28.269C130.962 40.33 157.42 58.008 179.706 80.294C201.992 102.58 219.67 129.038 231.731 158.156C243.792 187.274 250 218.483 250 250C250 281.517 243.792 312.726 231.731 341.844C219.67 370.962 201.992 397.42 179.706 419.706C157.42 441.992 130.962 459.67 101.844 471.731"></path></g></g></g><g id="g-root-cp_2_g-2_dfgpbi15z591n-fill" data-item-order="-515064" transform="translate(206, 122)"><defs><linearGradient id="gradient-cbcbcb-248399021" x2="0" y2="1"><stop offset="0" stop-color="#d9d9d9"></stop><stop offset="1" stop-color="#bcbcbc"></stop></linearGradient><linearGradient id="gradient-64edab-240055791" x2="0" y2="1"><stop offset="0" stop-color="#83fac1"></stop><stop offset="1" stop-color="#44e095"></stop></linearGradient><linearGradient id="gradient-bceb57-497517668" x2="0" y2="1"><stop offset="0" stop-color="#cff976"></stop><stop offset="1" stop-color="#a8dd38"></stop></linearGradient></defs><g id="cp_2_g-2_dfgpbi15z591n-fill-merged" stroke="none" fill="url(#gradient-bceb57-497517668)" fill-opacity="1"><g><path d="M158.156 28.269C187.274 16.208 218.483 10 250 10 V93.342C229.427 93.342 209.056 97.394 190.05 105.267C171.043 113.14 153.773 124.679 139.226 139.226C124.679 153.773 113.14 171.043 105.267 190.05C100.476 201.615 97.101 213.686 95.191 226 H136 V214L172 250L136 286 V274 H95.191C97.101 286.314 100.476 298.385 105.267 309.95C113.14 328.957 124.679 346.227 139.226 360.774C153.773 375.321 171.043 386.86 190.05 394.733C209.056 402.606 229.427 406.658 250 406.658 V490C218.483 490 187.274 483.792 158.156 471.731C129.038 459.67 102.58 441.992 80.294 419.706C58.008 397.42 40.33 370.962 28.269 341.844C16.208 312.726 10 281.517 10 250C10 218.483 16.208 187.274 28.269 158.156C40.33 129.038 58.008 102.58 80.294 80.294C102.58 58.008 129.038 40.33 158.156 28.269"></path></g></g></g><g id="g-root-tx_lowcoden_1upaqsu15z5b7o-fill" data-item-order="0" transform="translate(266, 38)"><g id="tx_lowcoden_1upaqsu15z5b7o-fill-merged" stroke="none" fill="#484848" fill-opacity="1"><g><text style="font: bold 25px Roboto, sans-serif; white-space: pre;" transform="translate(196, 28)" font-weight="bold" font-size="25px" font-family="Roboto, sans-serif"><tspan x="-183.71" y="15" dominant-baseline="ideographic">Low-Code/No-Code Self-Service</tspan></text></g></g></g><g id="g-root-tx_dragandd_mg3lf215ysn42-fill" data-item-order="0" transform="translate(50, 296)"><g id="tx_dragandd_mg3lf215ysn42-fill-merged" stroke="none" fill="#92bd39" fill-opacity="1"><g><text style="font: 20px Roboto, sans-serif; white-space: pre;" transform="translate(142, 40)" font-size="20px" font-family="Roboto, sans-serif"><tspan x="-129.09" y="-0" dominant-baseline="ideographic">Drag and Drop </tspan><tspan x="-95.89" y="24" dominant-baseline="ideographic">Workflows</tspan></text></g></g></g><g id="g-root-tx_intuitiv_hz154e15yslq8-fill" data-item-order="0" transform="translate(722, 290)"><g id="tx_intuitiv_hz154e15yslq8-fill-merged" stroke="none" fill="#3cc583" fill-opacity="1"><g><text style="font: 20px Roboto, sans-serif; white-space: pre;" transform="translate(10, 40)" font-size="20px" font-family="Roboto, sans-serif"><tspan x="2" y="-0" dominant-baseline="ideographic">Intuitive </tspan><tspan x="2" y="24" dominant-baseline="ideographic">Interface</tspan></text></g></g></g><g id="g-root-ic_airf_1cw5b1q15zdp8i-fill" data-item-order="0" transform="translate(224, 338)"></g><g id="g-root-ic_touc_143075a15z5b7p-fill" data-item-order="0" transform="translate(620, 338)"></g><g id="g-root-tx_selfserv_1ha3h2m15ytzwk-fill" data-item-order="0" transform="translate(362, 326)"><g id="tx_selfserv_1ha3h2m15ytzwk-fill-merged" stroke="none" fill="#fafafa" fill-opacity="1"><g><text style="font: bold 20px Roboto, sans-serif; white-space: pre;" transform="translate(94, 46)" font-weight="bold" font-size="20px" font-family="Roboto, sans-serif"><tspan x="-28.89" y="-12" dominant-baseline="ideographic">Digital </tspan><tspan x="-52.67" y="12" dominant-baseline="ideographic">Notification</tspan><tspan x="-39.37" y="36" dominant-baseline="ideographic">Platform</tspan></text></g></g></g><g id="g-root-tx_simplifi_9mjvy15ysmbv-fill" data-item-order="0" transform="translate(50, 368)"><g id="tx_simplifi_9mjvy15ysmbv-fill-merged" stroke="none" fill="#484848" fill-opacity="1"><g><text style="font: 15px Roboto, sans-serif; white-space: pre;" transform="translate(142, 46)" font-size="15px" font-family="Roboto, sans-serif"><tspan x="-67.44" y="-18" dominant-baseline="ideographic">Simplifies </tspan><tspan x="-118.67" y="0" dominant-baseline="ideographic">configuration and </tspan><tspan x="-80.33" y="18" dominant-baseline="ideographic">deployment </tspan><tspan x="-70.91" y="36" dominant-baseline="ideographic">processes</tspan></text></g></g></g><g id="g-root-tx_provides_1d2e52m15ysn41-fill" data-item-order="0" transform="translate(722, 362)"><g id="tx_provides_1d2e52m15ysn41-fill-merged" stroke="none" fill="#484848" fill-opacity="1"><g><text style="font: 15px Roboto, sans-serif; white-space: pre;" transform="translate(10, 46)" font-size="15px" font-family="Roboto, sans-serif"><tspan x="2" y="-18" dominant-baseline="ideographic">Provides easy </tspan><tspan x="2" y="0" dominant-baseline="ideographic">access and </tspan><tspan x="2" y="18" dominant-baseline="ideographic">management for </tspan><tspan x="2" y="36" dominant-baseline="ideographic">notifications</tspan></text></g></g></g><g id="g-root-cp_0_g-0_zlxqum15z59tt-stroke" data-item-order="-515078" transform="translate(362.1970520019531, 278)"><g id="cp_0_g-0_zlxqum15z59tt-stroke" fill="none" stroke-linecap="round" stroke-linejoin="round" stroke-miterlimit="4" stroke="#484848" stroke-width="2" stroke-opacity="1"><g><path d="M 177.420569 99.6178C 174.532269 143.358 138.163269 177.9488 93.704069 177.9999C 49.307469 177.9489 12.978369 143.4554 9.999969 99.8028L 15.802769 94L 9.999969 88.1972C 12.978369 44.5445 49.307369 10.051 93.704069 10C 138.163269 10.0511 174.532269 44.6419 177.420569 88.3821L 171.802769 94L 177.420569 99.6178Z"></path></g></g></g><g id="g-root-cp_1_g-1_mb3pke15z588y-stroke" data-item-order="-515074" transform="translate(446, 122)"><g id="cp_1_g-1_mb3pke15z588y-stroke" fill="none" stroke-linecap="round" stroke-linejoin="round" stroke-miterlimit="4" stroke="#484848" stroke-width="2" stroke-opacity="1"><g><path d="M 101.844 471.7311C 72.7259 483.7922 41.5173 490 10 490L 10 406.6578C 30.5726 406.6578 50.9438 402.6057 69.9504 394.733C 88.957 386.8602 106.2268 375.3208 120.7738 360.7738C 135.3208 346.2268 146.8602 328.957 154.733 309.9503C 159.5236 298.3848 162.8995 286.314 164.8085 274L 124 274L 124 286L 88 250L 124 214L 124 226L 164.8085 226C 162.8995 213.686 159.5236 201.6152 154.733 190.0497C 146.8602 171.043 135.3208 153.7732 120.7738 139.2262C 106.2268 124.6792 88.957 113.1398 69.9504 105.267C 50.9438 97.3942 30.5726 93.3422 10 93.3422L 10 10C 41.5173 10 72.7259 16.2078 101.844 28.2689C 130.9622 40.33 157.4196 58.0083 179.7056 80.2944C 201.9917 102.5804 219.67 129.0378 231.7311 158.156C 243.7922 187.2741 250 218.4828 250 250C 250 281.5172 243.7922 312.7259 231.7311 341.844C 219.67 370.9622 201.9917 397.4196 179.7056 419.7056C 157.4196 441.9917 130.9622 459.67 101.844 471.7311Z"></path></g></g></g><g id="g-root-cp_2_g-2_dfgpbi15z591n-stroke" data-item-order="-515064" transform="translate(206, 122)"><g id="cp_2_g-2_dfgpbi15z591n-stroke" fill="none" stroke-linecap="round" stroke-linejoin="round" stroke-miterlimit="4" stroke="#484848" stroke-width="2" stroke-opacity="1"><g><path d="M 158.156 28.2689C 187.2741 16.2078 218.4828 10 250 10L 250 93.3422C 229.4274 93.3422 209.0562 97.3942 190.0497 105.267C 171.043 113.1398 153.7732 124.6792 139.2262 139.2262C 124.6792 153.7732 113.1398 171.043 105.267 190.0497C 100.4764 201.6152 97.1005 213.686 95.1915 226L 136 226L 136 214L 172 250L 136 286L 136 274L 95.1915 274C 97.1005 286.314 100.4764 298.3848 105.267 309.9503C 113.1398 328.957 124.6792 346.2268 139.2262 360.7738C 153.7732 375.3208 171.0431 386.8602 190.0497 394.733C 209.0563 402.6057 229.4274 406.6578 250 406.6578L 250 490C 218.4828 490 187.2741 483.7922 158.156 471.7311C 129.0378 459.67 102.5804 441.9917 80.2944 419.7056C 58.0083 397.4196 40.33 370.9622 28.2689 341.844C 16.2078 312.7259 10 281.5172 10 250C 10 218.4828 16.2078 187.2741 28.2689 158.156C 40.33 129.0378 58.0083 102.5804 80.2944 80.2944C 102.5804 58.0083 129.0378 40.33 158.156 28.2689Z"></path></g></g></g><g id="g-root-tx_lowcoden_1upaqsu15z5b7o-stroke" data-item-order="0" transform="translate(266, 38)"></g><g id="g-root-tx_dragandd_mg3lf215ysn42-stroke" data-item-order="0" transform="translate(50, 296)"></g><g id="g-root-tx_intuitiv_hz154e15yslq8-stroke" data-item-order="0" transform="translate(722, 290)"></g><g id="g-root-ic_airf_1cw5b1q15zdp8i-stroke" data-item-order="0" transform="translate(224, 338)"><g id="ic_airf_1cw5b1q15zdp8i-stroke" fill="none" stroke-linecap="round" stroke-linejoin="round" stroke-miterlimit="4" stroke="#484848" stroke-width="2" stroke-opacity="1"><g><path d="M 16.900139 23.5C 19.661579 23.5 21.900139 21.261421 21.900139 18.5C 21.900139 15.738581 19.661579 13.5 16.900139 13.5C 14.13872 13.5 11.900146 15.738581 11.900146 18.5C 11.900146 21.261421 14.13872 23.5 16.900139 23.5ZM 52.099998 22.900581C 54.529999 22.900581 56.5 20.930641 56.5 18.50058C 56.5 16.07052 54.529999 14.10058 52.099998 14.10058C 49.6698 14.10058 47.700001 16.07052 47.700001 18.50058C 47.700001 20.930641 49.6698 22.900581 52.099998 22.900581ZM 52.099998 37.9006C 54.529999 37.9006 56.5 35.930599 56.5 33.500603C 56.5 31.070601 54.529999 29.10058 52.099998 29.10058C 49.6698 29.10058 47.700001 31.070601 47.700001 33.500603C 47.700001 35.930599 49.6698 37.9006 52.099998 37.9006ZM 52.099998 52.9006C 54.529999 52.9006 56.5 50.930599 56.5 48.500599C 56.5 46.070599 54.529999 44.100601 52.099998 44.100601C 49.6698 44.100601 47.700001 46.070599 47.700001 48.500599C 47.700001 50.930599 49.6698 52.9006 52.099998 52.9006ZM 22.50004 53.5L 16.9 44.5L 11.5 53.5L 22.50004 53.5ZM 10 10M 12.44406 38.5L 21.444099 38.5L 21.444099 29.5L 12.44406 29.5L 12.44406 38.5ZM 43.500198 11.5L 38.500198 11.5L 38.500198 56.5L 43.500198 56.5M 27.50012 34L 38.500198 34"></path></g></g></g><g id="g-root-ic_touc_143075a15z5b7p-stroke" data-item-order="0" transform="translate(620, 338)"><g id="ic_touc_143075a15z5b7p-stroke" fill="none" stroke-linecap="round" stroke-linejoin="round" stroke-miterlimit="4" stroke="#484848" stroke-width="2" stroke-opacity="1"><g><path d="M 57 57L 57 53C 57 48.581722 53.418278 45 49 45L 43 45L 43 32C 43 30.343147 41.656853 29 40 29C 38.343147 29 37 30.343147 37 32L 37 51.655998L 32.307999 46C 31.248793 44.725597 29.356976 44.551281 28.082726 45.610668C 26.808475 46.670059 26.634428 48.561901 27.694 49.835999L 33.643997 57M 25.257999 10.998L 11 18.254L 25.257999 25.51L 39.515999 18.254L 25.257999 10.998ZM 32.136002 36.521999L 25.257999 40.024002L 11 32.765999L 11 18.254M 39.515999 18.254L 39.515999 24.51M 25.257999 25.51L 25.257999 40.024002"></path></g></g></g><g id="g-root-tx_selfserv_1ha3h2m15ytzwk-stroke" data-item-order="0" transform="translate(362, 326)"></g><g id="g-root-tx_simplifi_9mjvy15ysmbv-stroke" data-item-order="0" transform="translate(50, 368)"></g><g id="g-root-tx_provides_1d2e52m15ysn41-stroke" data-item-order="0" transform="translate(722, 362)"></g></g></g><path id="w4jt2y61877nye" d="M65.283 12.757a.35.35 0 0 0 .584.157l5.203-5.141-6.183 3.523.396 1.461zm-2.216-11.7a.35.35 0 0 0-.522.305v3.111l3.276-1.868-2.754-1.548zm3.728 2.105l-4.25 2.421v2.445l6.391-3.644-2.141-1.222zm4.708 3.303a.35.35 0 0 0 0-.609l-1.592-.9-7.365 4.199v1.782a.35.35 0 0 0 .523.305l8.435-4.777z M44.542 2.513c0-.433.355-.783.792-.783s.792.35.792.783-.355.783-.792.783-.792-.35-.792-.783zm59.171 0c0-.433.355-.783.792-.783s.792.35.792.783-.355.783-.792.783-.792-.35-.792-.783zm-85.951 7.636h-1.27v-.487c-.276.201-.864.609-1.881.609-1.202 0-2.274-.794-2.137-2.078.118-1.106 1.153-1.584 1.848-1.727l2.17-.345c0-.539-.29-.956-1.064-1.006s-1.21.305-1.571 1.017l-1.124-.605c1.218-2.631 5.029-1.764 5.029.414v4.207zm-1.27-2.86c.006.396-.062 1.112-.819 1.59-.587.37-1.841.299-1.903-.395-.049-.555.461-.791.906-.898l1.816-.297zm72.662 2.86h-1.27v-.487c-.276.201-.864.609-1.881.609-1.202 0-2.274-.794-2.137-2.078.118-1.106 1.153-1.584 1.848-1.727l2.17-.345c0-.539-.29-.956-1.064-1.006s-1.21.305-1.571 1.017l-1.124-.605c1.218-2.631 5.029-1.764 5.029.414v4.207zm-1.27-2.86c.006.396-.062 1.112-.82 1.59-.587.37-1.841.299-1.903-.395-.049-.555.461-.791.906-.898l1.816-.297zM99.096 10.149H97.85v-8.45h1.246v4.895l2.68-2.559h1.738l-2.633 2.535 2.715 3.578h-1.556l-2.077-2.707-.867.844v1.863zm6.053-6.114h-1.255v6.113h1.255V4.035zm-59.2 0h-1.255v6.113h1.255V4.035zm5.584 6.113V1.697h1.255v2.695c.361-.346 1-.485 1.47-.485 1.452 0 2.477 1.082 2.457 2.448v3.792h-1.27v-3.68c0-.408-.214-1.339-1.315-1.339-.968 0-1.342.756-1.342 1.339v3.681h-1.255zm-4.76-4.894V4.039h.621a.45.45 0 0 0 .45-.45v-.855h1.251v1.305h1.309v1.215h-1.309v3.109c0 .293.105.664.648.664.365 0 .531-.035.736-.07v1.137s-.361.113-.857.113c-1.398 0-1.777-1.051-1.777-1.788V5.254h-1.071zM36.528 4.039h-1.394l2.191 6.106h1.125l1.234-3.918 1.238 3.918h1.129l2.188-6.106h-1.383l-1.359 3.93-1.256-3.93h-1.124l-1.242 3.957-1.348-3.957zM26.212 7.141c-.02 1.566 1.187 3.129 3.223 3.129 1.566 0 2.383-.918 2.734-1.719L31.172 8c-.315.399-.801 1.094-1.738 1.094-1.145 0-1.825-.781-1.891-1.52h4.625c.074-.284.148-.995-.03-1.559-.336-1.064-1.221-2.102-2.839-2.102s-3.088 1.152-3.088 3.227zm1.363-.75h3.348c-.055-.43-.566-1.301-1.623-1.301a1.79 1.79 0 0 0-1.725 1.301zm-8.758.75c.038 1.758 1.277 3.133 3.145 3.133 1.074 0 1.723-.477 1.961-.672v.547h1.242V1.703h-1.258v2.888c-.414-.36-1.062-.68-1.93-.68-1.91 0-3.198 1.473-3.16 3.23zm1.309-.08c0 1.119.723 1.978 1.836 1.978a1.88 1.88 0 0 0 1.94-1.904c0-1.371-1.011-1.99-1.972-1.99s-1.805.798-1.805 1.916zm76.683-.028C96.771 5.275 95.532 3.9 93.664 3.9c-1.074 0-1.723.477-1.961.672v-.547h-1.242v8.22h1.258V9.583c.414.36 1.063.68 1.93.68 1.91 0 3.198-1.473 3.16-3.23zm-1.309.08c0-1.119-.723-1.978-1.836-1.978a1.88 1.88 0 0 0-1.94 1.904c0 1.371 1.011 1.99 1.972 1.99S95.5 8.231 95.5 7.113zM106.441 10.173V4.036h1.254v.382c.361-.346 1-.485 1.47-.485 1.452 0 2.477 1.082 2.457 2.448v3.792h-1.27V6.492c0-.408-.214-1.339-1.315-1.339-.969 0-1.342.756-1.342 1.339v3.681h-1.254zm-30.383-.021V1.824h1.084l4.215 5.777V1.824h1.32v8.328h-1.094l-4.207-5.796v5.796h-1.319zM5.24 10.149H4V2.377h1.014l2.664 3.597 2.654-3.592h1.03v7.766h-1.256V4.762L7.678 8.068 5.24 4.742v5.407z" transform="translate(788, 650)" fill="#80808088" stroke="none"></path></svg>